<svg width="25" height="24" viewBox="0 0 25 24" fill="none" xmlns="http://www.w3.org/2000/svg">
<g clip-path="url(#clip0_596_1319)">
<path d="M3.52119 10.2517L4.25053 10.0769L3.52119 10.2517ZM6.26554 16.7854L6.71636 16.186L6.71636 16.186L6.26554 16.7854ZM6.08563 16.6435L5.60783 17.2216L5.60783 17.2216L6.08563 16.6435ZM22.5191 10.7425L23.2484 10.9173L22.5191 10.7425ZM20.3896 16.3575L19.8642 15.8223L20.3896 16.3575ZM19.5403 17.0273L19.9383 17.663L19.9383 17.663L19.5403 17.0273ZM19.5 5.46053C19.0858 5.46053 18.75 5.79631 18.75 6.21053C18.75 6.62474 19.0858 6.96053 19.5 6.96053V5.46053ZM22.442 6.75598L22.9567 6.21052L22.9567 6.21052L22.442 6.75598ZM22.8037 7.21465L22.1533 7.5881L22.1533 7.5881L22.8037 7.21465ZM2.22761 1.8181C2.12715 1.41625 1.71994 1.17193 1.3181 1.27239C0.916252 1.37285 0.671932 1.78006 0.772393 2.1819L2.22761 1.8181ZM16.5 14.75C16.9142 14.75 17.25 14.4142 17.25 14C17.25 13.5858 16.9142 13.25 16.5 13.25V14.75ZM10.5 13.25C10.0858 13.25 9.75 13.5858 9.75 14C9.75 14.4142 10.0858 14.75 10.5 14.75V13.25ZM6.5 6.96053C6.91421 6.96053 7.25 6.62474 7.25 6.21053C7.25 5.79631 6.91421 5.46053 6.5 5.46053V6.96053ZM14.25 3C14.25 2.58579 13.9142 2.25 13.5 2.25C13.0858 2.25 12.75 2.58579 12.75 3H14.25ZM18.0327 8.32796C18.3243 8.03376 18.3222 7.55889 18.028 7.26731C17.7338 6.97573 17.2589 6.97785 16.9673 7.27204L18.0327 8.32796ZM16.1022 9.21038L16.6348 9.73834V9.73833L16.1022 9.21038ZM10.8978 9.21038L11.4305 8.68242L10.8978 9.21038ZM10.0327 7.27204C9.74111 6.97784 9.26624 6.97573 8.97204 7.26731C8.67784 7.55889 8.67573 8.03376 8.96731 8.32796L10.0327 7.27204ZM13.7507 10.9841L13.8455 11.7281L13.8455 11.7281L13.7507 10.9841ZM13.2493 10.9841L13.1545 11.7281L13.1545 11.7281L13.2493 10.9841ZM13.5836 17.0395H13.0789V18.5395H13.5836V17.0395ZM4.25053 10.0769L3.28198 6.03572L1.82329 6.38533L2.79184 10.4265L4.25053 10.0769ZM13.0789 17.0395C11.2351 17.0395 9.91652 17.0383 8.88985 16.919C7.88216 16.8019 7.2379 16.5783 6.71636 16.186L5.81472 17.3848C6.62818 17.9966 7.56449 18.275 8.71669 18.4089C9.84991 18.5406 11.2705 18.5395 13.0789 18.5395V17.0395ZM2.79184 10.4265C3.21333 12.1852 3.54329 13.5669 3.93548 14.6383C4.33425 15.7275 4.82325 16.5731 5.60783 17.2216L6.56344 16.0654C6.06041 15.6496 5.69281 15.0752 5.34406 14.1226C4.98874 13.152 4.68028 11.87 4.25053 10.0769L2.79184 10.4265ZM6.71636 16.186C6.66448 16.147 6.61349 16.1068 6.56344 16.0654L5.60783 17.2216C5.67553 17.2775 5.74451 17.3319 5.81472 17.3848L6.71636 16.186ZM21.7897 10.5677C21.418 12.1188 21.1513 13.2278 20.8545 14.0777C20.5626 14.9132 20.2634 15.4304 19.8642 15.8223L20.915 16.8927C21.5407 16.2785 21.938 15.5245 22.2706 14.5723C22.5982 13.6343 22.8838 12.4388 23.2484 10.9173L21.7897 10.5677ZM13.5836 18.5395C15.1482 18.5395 16.3773 18.5404 17.3658 18.4404C18.3694 18.3389 19.1952 18.1283 19.9383 17.663L19.1423 16.3917C18.6681 16.6885 18.0954 16.859 17.2149 16.948C16.3193 17.0386 15.1787 17.0395 13.5836 17.0395V18.5395ZM19.8642 15.8223C19.6449 16.0376 19.4028 16.2285 19.1423 16.3917L19.9383 17.663C20.2908 17.4423 20.6183 17.184 20.915 16.8927L19.8642 15.8223ZM19.5 6.96053C20.5051 6.96053 21.0191 6.96306 21.3638 7.01902C21.624 7.06124 21.7383 7.12312 21.9272 7.30143L22.9567 6.21052C22.5677 5.84339 22.1841 5.63253 21.6042 5.5384C21.1089 5.458 20.441 5.46053 19.5 5.46053V6.96053ZM23.2484 10.9173C23.4707 9.99004 23.6547 9.22794 23.725 8.61254C23.7968 7.98475 23.7675 7.38698 23.4541 6.8412L22.1533 7.5881C22.2356 7.7315 22.2908 7.95145 22.2347 8.44219C22.1772 8.94532 22.0211 9.60257 21.7897 10.5677L23.2484 10.9173ZM21.9272 7.30143C22.0162 7.38541 22.0924 7.482 22.1533 7.5881L23.4541 6.8412C23.3201 6.60776 23.1525 6.39527 22.9567 6.21052L21.9272 7.30143ZM3.28024 6.02863L2.22761 1.8181L0.772393 2.1819L1.82502 6.39243L3.28024 6.02863ZM16.5 13.25H10.5V14.75H16.5V13.25ZM2.55263 6.96053H6.5V5.46053H2.55263V6.96053ZM10.2237 20.9474C10.2237 21.1145 10.0882 21.25 9.92105 21.25V22.75C10.9166 22.75 11.7237 21.9429 11.7237 20.9474H10.2237ZM9.92105 21.25C9.75391 21.25 9.61842 21.1145 9.61842 20.9474H8.11842C8.11842 21.9429 8.92549 22.75 9.92105 22.75V21.25ZM9.61842 20.9474C9.61842 20.7802 9.75391 20.6447 9.92105 20.6447V19.1447C8.92549 19.1447 8.11842 19.9518 8.11842 20.9474H9.61842ZM9.92105 20.6447C10.0882 20.6447 10.2237 20.7802 10.2237 20.9474H11.7237C11.7237 19.9518 10.9166 19.1447 9.92105 19.1447V20.6447ZM16.5395 20.9474C16.5395 21.1145 16.404 21.25 16.2368 21.25V22.75C17.2324 22.75 18.0395 21.9429 18.0395 20.9474H16.5395ZM16.2368 21.25C16.0697 21.25 15.9342 21.1145 15.9342 20.9474H14.4342C14.4342 21.9429 15.2413 22.75 16.2368 22.75V21.25ZM15.9342 20.9474C15.9342 20.7802 16.0697 20.6447 16.2368 20.6447V19.1447C15.2413 19.1447 14.4342 19.9518 14.4342 20.9474H15.9342ZM16.2368 20.6447C16.404 20.6447 16.5395 20.7802 16.5395 20.9474H18.0395C18.0395 19.9518 17.2324 19.1447 16.2368 19.1447V20.6447ZM16.9673 7.27204L15.5695 8.68242L16.6348 9.73833L18.0327 8.32796L16.9673 7.27204ZM11.4305 8.68242L10.0327 7.27204L8.96731 8.32796L10.3652 9.73834L11.4305 8.68242ZM15.5695 8.68242C14.9997 9.25732 14.6161 9.64267 14.2935 9.90177C13.9827 10.1514 13.802 10.2215 13.6558 10.2401L13.8455 11.7281C14.3787 11.6601 14.8163 11.4057 15.2328 11.0713C15.6373 10.7464 16.0899 10.2882 16.6348 9.73834L15.5695 8.68242ZM10.3652 9.73834C10.9101 10.2882 11.3627 10.7464 11.7672 11.0713C12.1837 11.4057 12.6213 11.6601 13.1545 11.7281L13.3442 10.2401C13.198 10.2215 13.0173 10.1514 12.7065 9.90177C12.3839 9.64267 12.0003 9.25732 11.4305 8.68242L10.3652 9.73834ZM13.6558 10.2401C13.6041 10.2467 13.552 10.25 13.5 10.25V11.75C13.6154 11.75 13.7308 11.7427 13.8455 11.7281L13.6558 10.2401ZM13.5 10.25C13.448 10.25 13.3959 10.2467 13.3442 10.2401L13.1545 11.7281C13.2692 11.7427 13.3846 11.75 13.5 11.75V10.25ZM12.75 3V11H14.25V3H12.75Z" fill="#293241"/>
</g>
<defs>
<clipPath id="clip0_596_1319">
<rect width="24" height="24" fill="white" transform="translate(0.5)"/>
</clipPath>
</defs>
</svg>
