<svg width="24" height="24" viewBox="0 0 24 24" fill="none" xmlns="http://www.w3.org/2000/svg">
<path d="M20.3086 4.75215C20.6015 4.45926 20.6015 3.98438 20.3086 3.69149C20.0157 3.3986 19.5409 3.3986 19.248 3.69149L20.3086 4.75215ZM3.69161 19.2478C3.39872 19.5407 3.39872 20.0156 3.69161 20.3085C3.9845 20.6014 4.45938 20.6014 4.75227 20.3085L3.69161 19.2478ZM8.46458 21.1924L8.99491 20.6621H8.99491L8.46458 21.1924ZM8.2878 19.9549C7.99491 19.6621 7.52004 19.6621 7.22714 19.9549C6.93425 20.2478 6.93425 20.7227 7.22715 21.0156L8.2878 19.9549ZM16.7731 21.0156C17.066 20.7227 17.066 20.2478 16.7731 19.9549C16.4802 19.6621 16.0053 19.6621 15.7124 19.9549L16.7731 21.0156ZM15.5356 21.1924L15.0053 20.6621L15.5356 21.1924ZM2.80773 8.46446L2.2774 7.93413L2.80773 8.46446ZM4.04516 8.28768C4.33806 7.99479 4.33806 7.51992 4.04516 7.22702C3.75227 6.93413 3.2774 6.93413 2.9845 7.22702L4.04516 8.28768ZM2.9845 16.773C3.2774 17.0659 3.75227 17.0659 4.04516 16.773C4.33806 16.4801 4.33806 16.0052 4.04517 15.7123L2.9845 16.773ZM2.80773 15.5355L3.33806 15.0052H3.33806L2.80773 15.5355ZM15.5357 2.80761L16.066 2.27728V2.27728L15.5357 2.80761ZM15.7124 4.04504C16.0053 4.33794 16.4802 4.33794 16.7731 4.04504C17.066 3.75215 17.066 3.27728 16.7731 2.98438L15.7124 4.04504ZM7.22714 2.98438C6.93425 3.27727 6.93425 3.75215 7.22714 4.04504C7.52004 4.33794 7.99491 4.33794 8.28781 4.04504L7.22714 2.98438ZM8.46458 2.80761L8.99491 3.33794V3.33794L8.46458 2.80761ZM21.1925 15.5355L20.6622 15.0052L21.1925 15.5355ZM19.9551 15.7123C19.6622 16.0052 19.6622 16.4801 19.9551 16.773C20.248 17.0659 20.7228 17.0659 21.0157 16.773L19.9551 15.7123ZM21.0157 7.22702C20.7228 6.93413 20.248 6.93413 19.9551 7.22702C19.6622 7.51992 19.6622 7.99479 19.9551 8.28768L21.0157 7.22702ZM21.1925 8.46446L20.6622 8.99479V8.99479L21.1925 8.46446ZM19.248 3.69149L3.69161 19.2478L4.75227 20.3085L20.3086 4.75215L19.248 3.69149ZM8.99491 20.6621L8.2878 19.9549L7.22715 21.0156L7.93425 21.7227L8.99491 20.6621ZM15.7124 19.9549L15.0053 20.6621L16.066 21.7227L16.7731 21.0156L15.7124 19.9549ZM7.93425 21.7227C10.1798 23.9682 13.8205 23.9682 16.066 21.7227L15.0053 20.6621C13.3456 22.3218 10.6546 22.3218 8.99491 20.6621L7.93425 21.7227ZM3.33806 8.99479L4.04516 8.28768L2.9845 7.22702L2.2774 7.93413L3.33806 8.99479ZM4.04517 15.7123L3.33806 15.0052L2.2774 16.0659L2.9845 16.773L4.04517 15.7123ZM2.2774 7.93413C0.0318826 10.1796 0.0318835 13.8203 2.2774 16.0659L3.33806 15.0052C1.67833 13.3455 1.67833 10.6545 3.33806 8.99479L2.2774 7.93413ZM15.0053 3.33794L15.7124 4.04504L16.7731 2.98438L16.066 2.27728L15.0053 3.33794ZM8.28781 4.04504L8.99491 3.33794L7.93425 2.27728L7.22714 2.98438L8.28781 4.04504ZM16.066 2.27728C13.8205 0.0317611 10.1798 0.0317611 7.93425 2.27728L8.99491 3.33794C10.6546 1.67821 13.3456 1.67821 15.0053 3.33794L16.066 2.27728ZM20.6622 15.0052L19.9551 15.7123L21.0157 16.773L21.7228 16.0659L20.6622 15.0052ZM19.9551 8.28768L20.6622 8.99479L21.7228 7.93413L21.0157 7.22702L19.9551 8.28768ZM21.7228 16.0659C23.9683 13.8203 23.9683 10.1796 21.7228 7.93413L20.6622 8.99479C22.3219 10.6545 22.3219 13.3455 20.6622 15.0052L21.7228 16.0659Z" fill="#525B67"/>
</svg>
